<svg width="66" height="66" viewBox="0 0 66 66" fill="none" xmlns="http://www.w3.org/2000/svg">
<g filter="url(#filter0_d_1765_12054)">
<circle cx="32.545" cy="28.545" r="20.045" stroke="#0D98E6"/>
<path d="M34.5909 36.8245L34.5903 36.824L26.6143 28.8558C26.6142 28.8557 26.6141 28.8556 26.614 28.8555C26.5642 28.8056 26.5409 28.764 26.5293 28.7317C26.5107 28.68 26.4996 28.6199 26.5 28.5475V28.545C26.5 28.4709 26.5113 28.409 26.5301 28.3559C26.5409 28.3255 26.5632 28.285 26.6131 28.2353L26.6143 28.2341L34.5909 20.2417C34.7119 20.1204 34.858 20.0565 35.0654 20.0565C35.2623 20.0565 35.4195 20.1211 35.5636 20.2655C35.7129 20.4151 35.7725 20.5671 35.7725 20.7423C35.7725 20.9176 35.7129 21.0696 35.5636 21.2192L28.6048 28.1918L28.2523 28.545L28.6048 28.8982L35.5636 35.8707C35.6871 35.9945 35.7488 36.1387 35.7488 36.3362C35.7488 36.5234 35.6865 36.678 35.5404 36.824L35.5399 36.8245C35.3906 36.9741 35.2394 37.0334 35.0654 37.0334C34.8914 37.0334 34.7402 36.9741 34.5909 36.8245Z" fill="#0D98E6" stroke="#0D98E6"/>
</g>
<defs>
<filter id="filter0_d_1765_12054" x="0" y="0" width="65.0901" height="65.0901" filterUnits="userSpaceOnUse" color-interpolation-filters="sRGB">
<feFlood flood-opacity="0" result="BackgroundImageFix"/>
<feColorMatrix in="SourceAlpha" type="matrix" values="0 0 0 0 0 0 0 0 0 0 0 0 0 0 0 0 0 0 127 0" result="hardAlpha"/>
<feOffset dy="4"/>
<feGaussianBlur stdDeviation="6"/>
<feColorMatrix type="matrix" values="0 0 0 0 0 0 0 0 0 0 0 0 0 0 0 0 0 0 0.25 0"/>
<feBlend mode="normal" in2="BackgroundImageFix" result="effect1_dropShadow_1765_12054"/>
<feBlend mode="normal" in="SourceGraphic" in2="effect1_dropShadow_1765_12054" result="shape"/>
</filter>
</defs>
</svg>
